TITLE ""
FILE "DISC2Track29.mp3" MP3
  TRACK 01 AUDIO
    TITLE "DISC2Track29_01"
    INDEX 01 00:00:00
  TRACK 02 AUDIO
    TITLE "DISC2Track29_02"
    INDEX 01 00:04:24
  TRACK 03 AUDIO
    TITLE "DISC2Track29_03"
    INDEX 01 00:04:47
  TRACK 04 AUDIO
    TITLE "DISC2Track29_04"
    INDEX 01 00:08:51
  TRACK 05 AUDIO
    TITLE "DISC2Track29_05"
    INDEX 01 00:12:13
  TRACK 06 AUDIO
    TITLE "DISC2Track29_06"
    INDEX 01 00:15:43
  TRACK 07 AUDIO
    TITLE "DISC2Track29_07"
    INDEX 01 00:15:67
  TRACK 08 AUDIO
    TITLE "DISC2Track29_08"
    INDEX 01 00:19:55
  TRACK 09 AUDIO
    TITLE "DISC2Track29_09"
    INDEX 01 00:23:09
  TRACK 10 AUDIO
    TITLE "DISC2Track29_10"
    INDEX 01 00:26:33
  TRACK 11 AUDIO
    TITLE "DISC2Track29_11"
    INDEX 01 00:26:57
  TRACK 12 AUDIO
    TITLE "DISC2Track29_12"
    INDEX 01 00:29:49
  TRACK 13 AUDIO
    TITLE "DISC2Track29_13"
    INDEX 01 00:32:40
  TRACK 14 AUDIO
    TITLE "DISC2Track29_14"
    INDEX 01 00:35:20
  TRACK 15 AUDIO
    TITLE "DISC2Track29_15"
    INDEX 01 00:35:40
  TRACK 16 AUDIO
    TITLE "DISC2Track29_16"
    INDEX 01 00:39:18
  TRACK 17 AUDIO
    TITLE "DISC2Track29_17"
    INDEX 01 00:41:50
  TRACK 18 AUDIO
    TITLE "DISC2Track29_18"
    INDEX 01 00:43:71
  TRACK 19 AUDIO
    TITLE "DISC2Track29_19"
    INDEX 01 00:44:23
  TRACK 20 AUDIO
    TITLE "DISC2Track29_20"
    INDEX 01 00:47:14
  TRACK 21 AUDIO
    TITLE "DISC2Track29_21"
    INDEX 01 00:49:34
  TRACK 22 AUDIO
    TITLE "DISC2Track29_22"
    INDEX 01 00:51:49
  TRACK 23 AUDIO
    TITLE "DISC2Track29_23"
    INDEX 01 00:51:72
  TRACK 24 AUDIO
    TITLE "DISC2Track29_24"
    INDEX 01 00:55:09
  TRACK 25 AUDIO
    TITLE "DISC2Track29_25"
    INDEX 01 00:57:69
  TRACK 26 AUDIO
    TITLE "DISC2Track29_26"
    INDEX 01 01:00:44
  TRACK 27 AUDIO
    TITLE "DISC2Track29_27"
    INDEX 01 01:00:69
  TRACK 28 AUDIO
    TITLE "DISC2Track29_28"
    INDEX 01 01:03:27
  TRACK 29 AUDIO
    TITLE "DISC2Track29_29"
    INDEX 01 01:05:27
  TRACK 30 AUDIO
    TITLE "DISC2Track29_30"
    INDEX 01 01:07:32
  TRACK 31 AUDIO
    TITLE "DISC2Track29_31"
    INDEX 01 01:07:58
  TRACK 32 AUDIO
    TITLE "DISC2Track29_32"
    INDEX 01 01:10:19
  TRACK 33 AUDIO
    TITLE "DISC2Track29_33"
    INDEX 01 01:12:24
  TRACK 34 AUDIO
    TITLE "DISC2Track29_34"
    INDEX 01 01:14:15
  TRACK 35 AUDIO
    TITLE "DISC2Track29_35"
    INDEX 01 01:14:40
  TRACK 36 AUDIO
    TITLE "DISC2Track29_36"
    INDEX 01 01:18:71
  TRACK 37 AUDIO
    TITLE "DISC2Track29_37"
    INDEX 01 01:22:10
  TRACK 38 AUDIO
    TITLE "DISC2Track29_38"
    INDEX 01 01:25:16
  TRACK 39 AUDIO
    TITLE "DISC2Track29_39"
    INDEX 01 01:25:40
  TRACK 40 AUDIO
    TITLE "DISC2Track29_40"
    INDEX 01 01:29:22
  TRACK 41 AUDIO
    TITLE "DISC2Track29_41"
    INDEX 01 01:31:66
  TRACK 42 AUDIO
    TITLE "DISC2Track29_42"
    INDEX 01 01:34:29
